name Walk10.mot
datacolumns 19
datarows 10
range 3.94000000 3.94900000
endheader

                time	   L_ground_force_vx	   L_ground_force_vy	   L_ground_force_vz	   L_ground_force_px	   L_ground_force_py	   L_ground_force_pz	   R_ground_force_vx	   R_ground_force_vy	   R_ground_force_vz	   R_ground_force_px	   R_ground_force_py	   R_ground_force_pz	   L_ground_torque_x	   L_ground_torque_y	   L_ground_torque_z	   R_ground_torque_x	   R_ground_torque_y	   R_ground_torque_z	
          3.94000000	          0.00000000	          0.00000000	          0.00000000	         -0.00000000	          0.00000000	         -0.00000000	          7.65275243	         16.13957044	          4.68097706	          0.21069958	          0.00000000	          0.03371156	          0.00000000	          0.00000000	          0.00000000	          0.00000000	         -1.48674147	          0.00000000	
          3.94100000	          0.00000000	          0.00000000	          0.00000000	         -0.00000000	          0.00000000	         -0.00000000	          6.86234670	         13.59615532	          4.45579820	          0.19921694	          0.00000000	          0.03186505	          0.00000000	          0.00000000	          0.00000000	          0.00000000	         -1.33168598	          0.00000000	
          3.94200000	          0.00000000	          0.00000000	          0.00000000	         -0.00000000	          0.00000000	         -0.00000000	          6.11321334	         11.21761523	          4.23292756	          0.18795781	          0.00000000	          0.03005513	          0.00000000	          0.00000000	          0.00000000	          0.00000000	         -1.18478183	          0.00000000	
          3.94300000	          0.00000000	          0.00000000	         -0.00000000	         -0.00000000	          0.00000000	         -0.00000000	          5.40467402	          8.99891977	          4.01301106	          0.17694573	          0.00000000	          0.02828552	          0.00000000	          0.00000000	          0.00000000	          0.00000000	         -1.04589106	          0.00000000	
          3.94400000	          0.00000000	          0.00000000	         -0.00000000	         -0.00000000	          0.00000000	         -0.00000000	          4.73595465	          6.93486222	          3.79662854	          0.16620130	          0.00000000	          0.02655949	          0.00000000	          0.00000000	          0.00000000	          0.00000000	         -0.91485718	          0.00000000	
          3.94500000	          0.00000000	          0.00000000	         -0.00000000	         -0.00000000	          0.00000000	         -0.00000000	          4.10619652	          5.02009421	          3.58429719	          0.15574238	          0.00000000	          0.02487985	          0.00000000	          0.00000000	          0.00000000	          0.00000000	         -0.79150732	          0.00000000	
          3.94600000	          0.00000000	          0.00000000	         -0.00000000	         -0.00000000	          0.00000000	         -0.00000000	          3.51446668	          3.24915798	          3.37647491	          0.14558420	          0.00000000	          0.02324901	          0.00000000	          0.00000000	          0.00000000	          0.00000000	         -0.67565425	          0.00000000	
          3.94700000	          0.00000000	          0.00000000	         -0.00000000	         -0.00000000	          0.00000000	         -0.00000000	          2.95976783	          1.61651631	          3.17356363	          0.13573958	          0.00000000	          0.02166898	          0.00000000	          0.00000000	          0.00000000	          0.00000000	         -0.56709835	          0.00000000	
          3.94800000	          0.00000000	          0.00000000	         -0.00000000	         -0.00000000	          0.00000000	         -0.00000000	          2.44104751	          0.11658020	          2.97591256	          0.12621907	          0.00000000	          0.02014140	          0.00000000	          0.00000000	          0.00000000	          0.00000000	         -0.46562940	          0.00000000	
          3.94900000	          0.00000000	          0.00000000	         -0.00000000	         -0.00000000	          0.00000000	         -0.00000000	          1.95720680	         -1.25626563	          2.78382132	          0.11703107	          0.00000000	          0.01866760	          0.00000000	          0.00000000	          0.00000000	          0.00000000	         -0.37102825	          0.00000000	
